<svg id="Layer_1" data-name="Layer 1" xmlns="http://www.w3.org/2000/svg" viewBox="0 0 441.99 441.56"><defs><style>.cls-1{fill:#f9f9f9;}</style></defs><title>logoWhite</title><path id="Path_23" data-name="Path 23" class="cls-1" d="M221.08,441.56c-2.47,0-5,0-7.51-.12,12.66-11.72,20.54-27.14,23.44-45.82l4.61.08,31.56,39.67A221.41,221.41,0,0,1,221.08,441.56Zm127.44-40.51h0L313.4,356.8A348.54,348.54,0,0,0,331.29,312a330.21,330.21,0,0,0,10.63-42.93l46.07.8,1.27-72.39L272.1,195.45c-.12,7.36-.37,15.42-.76,24.67-.38,8.94-1,18.23-1.8,27.62s-1.76,18.77-2.78,27.6c-1,9-2.3,17.26-3.72,24.62l-4-.06-30.74-49.26-36.69-48c-10.31-13.36-18.86-24.7-25.41-33.7s-12.08-17.07-16.37-24A79.57,79.57,0,0,1,141,126.35a56.83,56.83,0,0,1-2.33-17.49l.05-3.29a47,47,0,0,1,3.35-17.22,38.84,38.84,0,0,1,9.37-13.5,40,40,0,0,1,13.75-8.47,50.31,50.31,0,0,1,17.23-2.83h1.15a56.35,56.35,0,0,1,18.53,3.36,54.78,54.78,0,0,1,16.13,9.42A65.25,65.25,0,0,1,231.14,91,80.75,80.75,0,0,1,240,110l67.76-35a111.61,111.61,0,0,0-15.59-30.88,113.19,113.19,0,0,0-26.53-26.47A140.41,140.41,0,0,0,233.81.68a220.63,220.63,0,0,1,207.9,220.26,220.75,220.75,0,0,1-93.18,180.11Zm-182.4-9.32h-1.46a75.5,75.5,0,0,1-25.34-4.47,54.85,54.85,0,0,1-19.46-12.44,50.65,50.65,0,0,1-12.24-20.21,84.07,84.07,0,0,1-3.7-27.79v-1.32a119.82,119.82,0,0,1,5.9-35.77c3.69-11.08,11.41-22.13,23-32.84l83,109.41c-6.3,9.94-14,16.78-22.74,20.34a71.43,71.43,0,0,1-26.94,5.12ZM16.87,304.61h0A220.34,220.34,0,0,1,58.53,71.76a113.52,113.52,0,0,0-5.38,33,111.88,111.88,0,0,0,10,48.24c6.94,15.42,17.37,33.32,31,53.21-25.59,14.4-45.39,32-58.85,52.29A124.51,124.51,0,0,0,16.88,304.6Z"/></svg>